<?xml version="1.0"?>
<svg xmlns="http://www.w3.org/2000/svg" xmlns:xlink="http://www.w3.org/1999/xlink" width="774" height="549">
<rect width="100%" height="100%" fill="white"/>
<line x1="293.9548872180451" y1="18" x2="480.04511278195486" y2="18" stroke="#000000" stroke-width="1.5" />
<polygon points="293.9548872180451 18, 298.9548872180451 23, 298.9548872180451 13"/>
<polygon points="480.04511278195486 18, 475.04511278195486 13, 475.04511278195486 23"/>
<text x="387" y="12" font-family="Roboto Mono" font-weight="bold" font-size="14px" text-anchor="middle" >33bp</text>
<rect x="12" y="24" height="12" width="281.9548872180451" fill="#009CA2" stroke="#009CA2" stroke-width="0" opacity="0.9" />
<rect x="12" y="26.16" height="4" width="281.9548872180451" fill="#F4EDF2" opacity="0.25" />
<rect x="293.9548872180451" y="24" height="12" width="186.09022556390977" fill="#1383C6" stroke="#1383C6" stroke-width="0" opacity="0.9" />
<rect x="293.9548872180451" y="26.16" height="4" width="186.09022556390977" fill="#F4EDF2" opacity="0.25" />
<rect x="480.04511278195486" y="24" height="12" width="281.9548872180451" fill="#009CA2" stroke="#009CA2" stroke-width="0" opacity="0.9" />
<rect x="480.04511278195486" y="26.16" height="4" width="281.9548872180451" fill="#F4EDF2" opacity="0.25" />
<rect width="750" height="12" x="12" y="24" stroke="#000000" stroke-width="1.5" fill="transparent" />
<rect x="12" y="39" height="12" width="281.9548872180451" fill="#009CA2" stroke="#009CA2" stroke-width="0" opacity="0.9" />
<rect x="12" y="41.16" height="4" width="281.9548872180451" fill="#F4EDF2" opacity="0.25" />
<line x1="293.9548872180451" y1="45" x2="299.593984962406" y2="45" stroke="#000000" stroke-width="1.5" />
<rect x="299.593984962406" y="39" height="12" width="180.45112781954887" fill="#1383C6" stroke="#1383C6" stroke-width="0" opacity="0.9" />
<rect x="299.593984962406" y="41.16" height="4" width="180.45112781954887" fill="#F4EDF2" opacity="0.25" />
<rect x="480.0451127819549" y="39" height="12" width="33.83458646616541" fill="#009CA2" stroke="#009CA2" stroke-width="0" opacity="0.9" />
<rect x="480.0451127819549" y="41.16" height="4" width="33.83458646616541" fill="#F4EDF2" opacity="0.25" />
<line x1="513.8796992481203" y1="45" x2="519.5187969924813" y2="45" stroke="#000000" stroke-width="1.5" />
<rect x="519.5187969924813" y="39" height="12" width="242.4812030075188" fill="#009CA2" stroke="#009CA2" stroke-width="0" opacity="0.9" />
<rect x="519.5187969924813" y="41.16" height="4" width="242.4812030075188" fill="#F4EDF2" opacity="0.25" />
<line x1="762" y1="39" x2="762" y2="51" stroke="#000000" stroke-width="2" />
<rect x="12" y="54" height="12" width="281.9548872180451" fill="#009CA2" stroke="#009CA2" stroke-width="0" opacity="0.9" />
<rect x="12" y="56.16" height="4" width="281.9548872180451" fill="#F4EDF2" opacity="0.25" />
<rect x="293.9548872180451" y="54" height="12" width="186.09022556390977" fill="#1383C6" stroke="#1383C6" stroke-width="0" opacity="0.9" />
<rect x="293.9548872180451" y="56.16" height="4" width="186.09022556390977" fill="#F4EDF2" opacity="0.25" />
<rect x="480.04511278195486" y="54" height="12" width="281.9548872180451" fill="#009CA2" stroke="#009CA2" stroke-width="0" opacity="0.9" />
<rect x="480.04511278195486" y="56.16" height="4" width="281.9548872180451" fill="#F4EDF2" opacity="0.25" />
<rect x="12" y="69" height="12" width="281.9548872180451" fill="#009CA2" stroke="#009CA2" stroke-width="0" opacity="0.9" />
<rect x="12" y="71.16" height="4" width="281.9548872180451" fill="#F4EDF2" opacity="0.25" />
<rect x="293.9548872180451" y="69" height="12" width="186.09022556390977" fill="#1383C6" stroke="#1383C6" stroke-width="0" opacity="0.9" />
<rect x="293.9548872180451" y="71.16" height="4" width="186.09022556390977" fill="#F4EDF2" opacity="0.25" />
<rect x="480.04511278195486" y="69" height="12" width="281.9548872180451" fill="#009CA2" stroke="#009CA2" stroke-width="0" opacity="0.9" />
<rect x="480.04511278195486" y="71.16" height="4" width="281.9548872180451" fill="#F4EDF2" opacity="0.25" />
<rect x="12" y="84" height="12" width="281.9548872180451" fill="#009CA2" stroke="#009CA2" stroke-width="0" opacity="0.9" />
<rect x="12" y="86.16" height="4" width="281.9548872180451" fill="#F4EDF2" opacity="0.25" />
<rect x="293.9548872180451" y="84" height="12" width="186.09022556390977" fill="#1383C6" stroke="#1383C6" stroke-width="0" opacity="0.9" />
<rect x="293.9548872180451" y="86.16" height="4" width="186.09022556390977" fill="#F4EDF2" opacity="0.25" />
<rect x="480.04511278195486" y="84" height="12" width="281.9548872180451" fill="#009CA2" stroke="#009CA2" stroke-width="0" opacity="0.9" />
<rect x="480.04511278195486" y="86.16" height="4" width="281.9548872180451" fill="#F4EDF2" opacity="0.25" />
<rect x="12" y="99" height="12" width="281.9548872180451" fill="#009CA2" stroke="#009CA2" stroke-width="0" opacity="0.9" />
<rect x="12" y="101.16" height="4" width="281.9548872180451" fill="#F4EDF2" opacity="0.25" />
<rect x="293.9548872180451" y="99" height="12" width="186.09022556390977" fill="#1383C6" stroke="#1383C6" stroke-width="0" opacity="0.9" />
<rect x="293.9548872180451" y="101.16" height="4" width="186.09022556390977" fill="#F4EDF2" opacity="0.25" />
<rect x="480.04511278195486" y="99" height="12" width="281.9548872180451" fill="#009CA2" stroke="#009CA2" stroke-width="0" opacity="0.9" />
<rect x="480.04511278195486" y="101.16" height="4" width="281.9548872180451" fill="#F4EDF2" opacity="0.25" />
<rect x="12" y="114" height="12" width="281.9548872180451" fill="#009CA2" stroke="#009CA2" stroke-width="0" opacity="0.9" />
<rect x="12" y="116.16" height="4" width="281.9548872180451" fill="#F4EDF2" opacity="0.25" />
<rect x="293.9548872180451" y="114" height="12" width="186.09022556390977" fill="#1383C6" stroke="#1383C6" stroke-width="0" opacity="0.9" />
<rect x="293.9548872180451" y="116.16" height="4" width="186.09022556390977" fill="#F4EDF2" opacity="0.25" />
<rect x="480.04511278195486" y="114" height="12" width="281.9548872180451" fill="#009CA2" stroke="#009CA2" stroke-width="0" opacity="0.9" />
<rect x="480.04511278195486" y="116.16" height="4" width="281.9548872180451" fill="#F4EDF2" opacity="0.25" />
<rect x="12" y="129" height="12" width="281.9548872180451" fill="#009CA2" stroke="#009CA2" stroke-width="0" opacity="0.9" />
<rect x="12" y="131.16" height="4" width="281.9548872180451" fill="#F4EDF2" opacity="0.25" />
<rect x="293.9548872180451" y="129" height="12" width="186.09022556390977" fill="#1383C6" stroke="#1383C6" stroke-width="0" opacity="0.9" />
<rect x="293.9548872180451" y="131.16" height="4" width="186.09022556390977" fill="#F4EDF2" opacity="0.25" />
<rect x="480.04511278195486" y="129" height="12" width="281.9548872180451" fill="#009CA2" stroke="#009CA2" stroke-width="0" opacity="0.9" />
<rect x="480.04511278195486" y="131.16" height="4" width="281.9548872180451" fill="#F4EDF2" opacity="0.25" />
<rect x="12" y="144" height="12" width="281.9548872180451" fill="#009CA2" stroke="#009CA2" stroke-width="0" opacity="0.9" />
<rect x="12" y="146.16" height="4" width="281.9548872180451" fill="#F4EDF2" opacity="0.25" />
<rect x="293.9548872180451" y="144" height="12" width="186.09022556390977" fill="#1383C6" stroke="#1383C6" stroke-width="0" opacity="0.9" />
<rect x="293.9548872180451" y="146.16" height="4" width="186.09022556390977" fill="#F4EDF2" opacity="0.25" />
<rect x="480.04511278195486" y="144" height="12" width="281.9548872180451" fill="#009CA2" stroke="#009CA2" stroke-width="0" opacity="0.9" />
<rect x="480.04511278195486" y="146.16" height="4" width="281.9548872180451" fill="#F4EDF2" opacity="0.25" />
<rect x="12" y="159" height="12" width="281.9548872180451" fill="#009CA2" stroke="#009CA2" stroke-width="0" opacity="0.9" />
<rect x="12" y="161.16" height="4" width="281.9548872180451" fill="#F4EDF2" opacity="0.25" />
<rect x="293.9548872180451" y="159" height="12" width="186.09022556390977" fill="#1383C6" stroke="#1383C6" stroke-width="0" opacity="0.9" />
<rect x="293.9548872180451" y="161.16" height="4" width="186.09022556390977" fill="#F4EDF2" opacity="0.25" />
<rect x="480.04511278195486" y="159" height="12" width="281.9548872180451" fill="#009CA2" stroke="#009CA2" stroke-width="0" opacity="0.9" />
<rect x="480.04511278195486" y="161.16" height="4" width="281.9548872180451" fill="#F4EDF2" opacity="0.25" />
<rect x="12" y="174" height="12" width="281.9548872180451" fill="#009CA2" stroke="#009CA2" stroke-width="0" opacity="0.9" />
<rect x="12" y="176.16" height="4" width="281.9548872180451" fill="#F4EDF2" opacity="0.25" />
<rect x="293.9548872180451" y="174" height="12" width="186.09022556390977" fill="#1383C6" stroke="#1383C6" stroke-width="0" opacity="0.9" />
<rect x="293.9548872180451" y="176.16" height="4" width="186.09022556390977" fill="#F4EDF2" opacity="0.25" />
<rect x="480.04511278195486" y="174" height="12" width="281.9548872180451" fill="#009CA2" stroke="#009CA2" stroke-width="0" opacity="0.9" />
<rect x="480.04511278195486" y="176.16" height="4" width="281.9548872180451" fill="#F4EDF2" opacity="0.25" />
<rect x="12" y="189" height="12" width="281.9548872180451" fill="#009CA2" stroke="#009CA2" stroke-width="0" opacity="0.9" />
<rect x="12" y="191.16" height="4" width="281.9548872180451" fill="#F4EDF2" opacity="0.25" />
<rect x="293.9548872180451" y="189" height="12" width="186.09022556390977" fill="#1383C6" stroke="#1383C6" stroke-width="0" opacity="0.9" />
<rect x="293.9548872180451" y="191.16" height="4" width="186.09022556390977" fill="#F4EDF2" opacity="0.25" />
<rect x="480.04511278195486" y="189" height="12" width="281.9548872180451" fill="#009CA2" stroke="#009CA2" stroke-width="0" opacity="0.9" />
<rect x="480.04511278195486" y="191.16" height="4" width="281.9548872180451" fill="#F4EDF2" opacity="0.25" />
<rect x="12" y="204" height="12" width="281.9548872180451" fill="#009CA2" stroke="#009CA2" stroke-width="0" opacity="0.9" />
<rect x="12" y="206.16" height="4" width="281.9548872180451" fill="#F4EDF2" opacity="0.25" />
<rect x="293.9548872180451" y="204" height="12" width="186.09022556390977" fill="#1383C6" stroke="#1383C6" stroke-width="0" opacity="0.9" />
<rect x="293.9548872180451" y="206.16" height="4" width="186.09022556390977" fill="#F4EDF2" opacity="0.25" />
<rect x="480.04511278195486" y="204" height="12" width="281.9548872180451" fill="#009CA2" stroke="#009CA2" stroke-width="0" opacity="0.9" />
<rect x="480.04511278195486" y="206.16" height="4" width="281.9548872180451" fill="#F4EDF2" opacity="0.25" />
<rect x="12" y="219" height="12" width="281.9548872180451" fill="#009CA2" stroke="#009CA2" stroke-width="0" opacity="0.9" />
<rect x="12" y="221.16" height="4" width="281.9548872180451" fill="#F4EDF2" opacity="0.25" />
<rect x="293.9548872180451" y="219" height="12" width="186.09022556390977" fill="#1383C6" stroke="#1383C6" stroke-width="0" opacity="0.9" />
<rect x="293.9548872180451" y="221.16" height="4" width="186.09022556390977" fill="#F4EDF2" opacity="0.25" />
<rect x="480.04511278195486" y="219" height="12" width="208.64661654135338" fill="#009CA2" stroke="#009CA2" stroke-width="0" opacity="0.9" />
<rect x="480.04511278195486" y="221.16" height="4" width="208.64661654135338" fill="#F4EDF2" opacity="0.25" />
<rect x="688.6917293233082" y="219" height="12" width="11.278195488721805" fill="#7E7F7F" stroke="#7E7F7F" stroke-width="0" opacity="0.9" />
<rect x="688.6917293233082" y="221.16" height="4" width="11.278195488721805" fill="#F4EDF2" opacity="0.25" />
<rect x="699.9699248120301" y="219" height="12" width="62.03007518796993" fill="#009CA2" stroke="#009CA2" stroke-width="0" opacity="0.9" />
<rect x="699.9699248120301" y="221.16" height="4" width="62.03007518796993" fill="#F4EDF2" opacity="0.25" />
<rect x="12" y="234" height="12" width="281.9548872180451" fill="#009CA2" stroke="#009CA2" stroke-width="0" opacity="0.9" />
<rect x="12" y="236.16" height="4" width="281.9548872180451" fill="#F4EDF2" opacity="0.25" />
<rect x="293.9548872180451" y="234" height="12" width="186.09022556390977" fill="#1383C6" stroke="#1383C6" stroke-width="0" opacity="0.9" />
<rect x="293.9548872180451" y="236.16" height="4" width="186.09022556390977" fill="#F4EDF2" opacity="0.25" />
<rect x="480.04511278195486" y="234" height="12" width="169.17293233082708" fill="#009CA2" stroke="#009CA2" stroke-width="0" opacity="0.9" />
<rect x="480.04511278195486" y="236.16" height="4" width="169.17293233082708" fill="#F4EDF2" opacity="0.25" />
<rect x="649.218045112782" y="234" height="12" width="11.278195488721805" fill="#7E7F7F" stroke="#7E7F7F" stroke-width="0" opacity="0.9" />
<rect x="649.218045112782" y="236.16" height="4" width="11.278195488721805" fill="#F4EDF2" opacity="0.25" />
<rect x="660.4962406015038" y="234" height="12" width="73.30827067669173" fill="#009CA2" stroke="#009CA2" stroke-width="0" opacity="0.9" />
<rect x="660.4962406015038" y="236.16" height="4" width="73.30827067669173" fill="#F4EDF2" opacity="0.25" />
<rect x="733.8045112781956" y="234" height="12" width="11.278195488721805" fill="#7E7F7F" stroke="#7E7F7F" stroke-width="0" opacity="0.9" />
<rect x="733.8045112781956" y="236.16" height="4" width="11.278195488721805" fill="#F4EDF2" opacity="0.25" />
<rect x="745.0827067669175" y="234" height="12" width="11.278195488721805" fill="#009CA2" stroke="#009CA2" stroke-width="0" opacity="0.9" />
<rect x="745.0827067669175" y="236.16" height="4" width="11.278195488721805" fill="#F4EDF2" opacity="0.25" />
<rect x="756.3609022556393" y="234" height="12" width="5.639097744360902" fill="#7E7F7F" stroke="#7E7F7F" stroke-width="0" opacity="0.9" />
<rect x="756.3609022556393" y="236.16" height="4" width="5.639097744360902" fill="#F4EDF2" opacity="0.25" />
<rect x="12" y="249" height="12" width="281.9548872180451" fill="#009CA2" stroke="#009CA2" stroke-width="0" opacity="0.9" />
<rect x="12" y="251.16" height="4" width="281.9548872180451" fill="#F4EDF2" opacity="0.25" />
<rect x="293.9548872180451" y="249" height="12" width="5.639097744360902" fill="#1383C6" stroke="#1383C6" stroke-width="0" opacity="0.9" />
<rect x="293.9548872180451" y="251.16" height="4" width="5.639097744360902" fill="#F4EDF2" opacity="0.25" />
<rect x="299.593984962406" y="249" height="12" width="67.66917293233082" fill="#1383C6" stroke="#1383C6" stroke-width="0" opacity="0.9" />
<rect x="299.593984962406" y="251.16" height="4" width="67.66917293233082" fill="#F4EDF2" opacity="0.25" />
<rect x="367.2631578947368" y="249" height="12" width="67.66917293233082" fill="#1383C6" stroke="#1383C6" stroke-width="0" opacity="0.9" />
<rect x="367.2631578947368" y="251.16" height="4" width="67.66917293233082" fill="#F4EDF2" opacity="0.25" />
<rect x="434.93233082706763" y="249" height="12" width="45.11278195488722" fill="#1383C6" stroke="#1383C6" stroke-width="0" opacity="0.9" />
<rect x="434.93233082706763" y="251.16" height="4" width="45.11278195488722" fill="#F4EDF2" opacity="0.25" />
<rect x="480.04511278195486" y="249" height="12" width="281.9548872180451" fill="#009CA2" stroke="#009CA2" stroke-width="0" opacity="0.9" />
<rect x="480.04511278195486" y="251.16" height="4" width="281.9548872180451" fill="#F4EDF2" opacity="0.25" />
<line x1="299.593984962406" y1="249" x2="299.593984962406" y2="261" stroke="#000000" stroke-width="2" />
<line x1="367.2631578947368" y1="249" x2="367.2631578947368" y2="261" stroke="#000000" stroke-width="2" />
<line x1="434.93233082706763" y1="249" x2="434.93233082706763" y2="261" stroke="#000000" stroke-width="2" />
<line x1="293.9548872180451" y1="291" x2="480.04511278195486" y2="291" stroke="#000000" stroke-width="1.5" />
<polygon points="293.9548872180451 291, 298.9548872180451 296, 298.9548872180451 286"/>
<polygon points="480.04511278195486 291, 475.04511278195486 286, 475.04511278195486 296"/>
<text x="387" y="285" font-family="Roboto Mono" font-weight="bold" font-size="14px" text-anchor="middle" >33bp</text>
<rect x="12" y="297" height="12" width="281.9548872180451" fill="#009CA2" stroke="#009CA2" stroke-width="0" opacity="0.9" />
<rect x="12" y="299.16" height="4" width="281.9548872180451" fill="#F4EDF2" opacity="0.25" />
<rect x="293.9548872180451" y="297" height="12" width="186.09022556390977" fill="#1383C6" stroke="#1383C6" stroke-width="0" opacity="0.9" />
<rect x="293.9548872180451" y="299.16" height="4" width="186.09022556390977" fill="#F4EDF2" opacity="0.25" />
<rect x="480.04511278195486" y="297" height="12" width="281.9548872180451" fill="#009CA2" stroke="#009CA2" stroke-width="0" opacity="0.9" />
<rect x="480.04511278195486" y="299.16" height="4" width="281.9548872180451" fill="#F4EDF2" opacity="0.25" />
<rect width="750" height="12" x="12" y="297" stroke="#000000" stroke-width="1.5" fill="transparent" />
<rect x="12" y="312" height="12" width="281.9548872180451" fill="#009CA2" stroke="#009CA2" stroke-width="0" opacity="0.9" />
<rect x="12" y="314.16" height="4" width="281.9548872180451" fill="#F4EDF2" opacity="0.25" />
<rect x="293.9548872180451" y="312" height="12" width="180.45112781954887" fill="#1383C6" stroke="#1383C6" stroke-width="0" opacity="0.9" />
<rect x="293.9548872180451" y="314.16" height="4" width="180.45112781954887" fill="#F4EDF2" opacity="0.25" />
<line x1="474.406015037594" y1="318" x2="480.0451127819549" y2="318" stroke="#000000" stroke-width="1.5" />
<line x1="480.0451127819549" y1="318" x2="491.3233082706767" y2="318" stroke="#000000" stroke-width="1.5" />
<rect x="491.3233082706767" y="312" height="12" width="270.6766917293233" fill="#009CA2" stroke="#009CA2" stroke-width="0" opacity="0.9" />
<rect x="491.3233082706767" y="314.16" height="4" width="270.6766917293233" fill="#F4EDF2" opacity="0.25" />
<rect x="12" y="327" height="12" width="281.9548872180451" fill="#009CA2" stroke="#009CA2" stroke-width="0" opacity="0.9" />
<rect x="12" y="329.16" height="4" width="281.9548872180451" fill="#F4EDF2" opacity="0.25" />
<rect x="293.9548872180451" y="327" height="12" width="5.639097744360902" fill="#1383C6" stroke="#1383C6" stroke-width="0" opacity="0.9" />
<rect x="293.9548872180451" y="329.16" height="4" width="5.639097744360902" fill="#F4EDF2" opacity="0.25" />
<line x1="299.593984962406" y1="333" x2="310.8721804511278" y2="333" stroke="#000000" stroke-width="1.5" />
<rect x="310.8721804511278" y="327" height="12" width="169.17293233082708" fill="#1383C6" stroke="#1383C6" stroke-width="0" opacity="0.9" />
<rect x="310.8721804511278" y="329.16" height="4" width="169.17293233082708" fill="#F4EDF2" opacity="0.25" />
<rect x="480.0451127819549" y="327" height="12" width="5.639097744360902" fill="#009CA2" stroke="#009CA2" stroke-width="0" opacity="0.9" />
<rect x="480.0451127819549" y="329.16" height="4" width="5.639097744360902" fill="#F4EDF2" opacity="0.25" />
<rect x="485.68421052631584" y="327" height="12" width="276.3157894736842" fill="#009CA2" stroke="#009CA2" stroke-width="0" opacity="0.9" />
<rect x="485.68421052631584" y="329.16" height="4" width="276.3157894736842" fill="#F4EDF2" opacity="0.25" />
<line x1="485.68421052631584" y1="327" x2="485.68421052631584" y2="339" stroke="#000000" stroke-width="2" />
<rect x="12" y="342" height="12" width="281.9548872180451" fill="#009CA2" stroke="#009CA2" stroke-width="0" opacity="0.9" />
<rect x="12" y="344.16" height="4" width="281.9548872180451" fill="#F4EDF2" opacity="0.25" />
<line x1="293.9548872180451" y1="348" x2="299.593984962406" y2="348" stroke="#000000" stroke-width="1.5" />
<rect x="299.593984962406" y="342" height="12" width="180.45112781954887" fill="#1383C6" stroke="#1383C6" stroke-width="0" opacity="0.9" />
<rect x="299.593984962406" y="344.16" height="4" width="180.45112781954887" fill="#F4EDF2" opacity="0.25" />
<rect x="480.0451127819549" y="342" height="12" width="118.42105263157895" fill="#009CA2" stroke="#009CA2" stroke-width="0" opacity="0.9" />
<rect x="480.0451127819549" y="344.16" height="4" width="118.42105263157895" fill="#F4EDF2" opacity="0.25" />
<rect x="598.4661654135339" y="342" height="12" width="157.89473684210526" fill="#009CA2" stroke="#009CA2" stroke-width="0" opacity="0.9" />
<rect x="598.4661654135339" y="344.16" height="4" width="157.89473684210526" fill="#F4EDF2" opacity="0.25" />
<line x1="756.3609022556391" y1="348" x2="762" y2="348" stroke="#000000" stroke-width="1.5" />
<line x1="598.4661654135339" y1="342" x2="598.4661654135339" y2="354" stroke="#000000" stroke-width="2" />
<rect x="12" y="357" height="12" width="281.9548872180451" fill="#009CA2" stroke="#009CA2" stroke-width="0" opacity="0.9" />
<rect x="12" y="359.16" height="4" width="281.9548872180451" fill="#F4EDF2" opacity="0.25" />
<rect x="293.9548872180451" y="357" height="12" width="186.09022556390977" fill="#1383C6" stroke="#1383C6" stroke-width="0" opacity="0.9" />
<rect x="293.9548872180451" y="359.16" height="4" width="186.09022556390977" fill="#F4EDF2" opacity="0.25" />
<rect x="480.04511278195486" y="357" height="12" width="281.9548872180451" fill="#009CA2" stroke="#009CA2" stroke-width="0" opacity="0.9" />
<rect x="480.04511278195486" y="359.16" height="4" width="281.9548872180451" fill="#F4EDF2" opacity="0.25" />
<rect x="12" y="372" height="12" width="281.9548872180451" fill="#009CA2" stroke="#009CA2" stroke-width="0" opacity="0.9" />
<rect x="12" y="374.16" height="4" width="281.9548872180451" fill="#F4EDF2" opacity="0.25" />
<rect x="293.9548872180451" y="372" height="12" width="186.09022556390977" fill="#1383C6" stroke="#1383C6" stroke-width="0" opacity="0.9" />
<rect x="293.9548872180451" y="374.16" height="4" width="186.09022556390977" fill="#F4EDF2" opacity="0.25" />
<rect x="480.04511278195486" y="372" height="12" width="281.9548872180451" fill="#009CA2" stroke="#009CA2" stroke-width="0" opacity="0.9" />
<rect x="480.04511278195486" y="374.16" height="4" width="281.9548872180451" fill="#F4EDF2" opacity="0.25" />
<rect x="12" y="387" height="12" width="281.9548872180451" fill="#009CA2" stroke="#009CA2" stroke-width="0" opacity="0.9" />
<rect x="12" y="389.16" height="4" width="281.9548872180451" fill="#F4EDF2" opacity="0.25" />
<rect x="293.9548872180451" y="387" height="12" width="186.09022556390977" fill="#1383C6" stroke="#1383C6" stroke-width="0" opacity="0.9" />
<rect x="293.9548872180451" y="389.16" height="4" width="186.09022556390977" fill="#F4EDF2" opacity="0.25" />
<rect x="480.04511278195486" y="387" height="12" width="281.9548872180451" fill="#009CA2" stroke="#009CA2" stroke-width="0" opacity="0.9" />
<rect x="480.04511278195486" y="389.16" height="4" width="281.9548872180451" fill="#F4EDF2" opacity="0.25" />
<rect x="12" y="402" height="12" width="281.9548872180451" fill="#009CA2" stroke="#009CA2" stroke-width="0" opacity="0.9" />
<rect x="12" y="404.16" height="4" width="281.9548872180451" fill="#F4EDF2" opacity="0.25" />
<rect x="293.9548872180451" y="402" height="12" width="186.09022556390977" fill="#1383C6" stroke="#1383C6" stroke-width="0" opacity="0.9" />
<rect x="293.9548872180451" y="404.16" height="4" width="186.09022556390977" fill="#F4EDF2" opacity="0.25" />
<rect x="480.04511278195486" y="402" height="12" width="281.9548872180451" fill="#009CA2" stroke="#009CA2" stroke-width="0" opacity="0.9" />
<rect x="480.04511278195486" y="404.16" height="4" width="281.9548872180451" fill="#F4EDF2" opacity="0.25" />
<rect x="12" y="417" height="12" width="281.9548872180451" fill="#009CA2" stroke="#009CA2" stroke-width="0" opacity="0.9" />
<rect x="12" y="419.16" height="4" width="281.9548872180451" fill="#F4EDF2" opacity="0.25" />
<rect x="293.9548872180451" y="417" height="12" width="186.09022556390977" fill="#1383C6" stroke="#1383C6" stroke-width="0" opacity="0.9" />
<rect x="293.9548872180451" y="419.16" height="4" width="186.09022556390977" fill="#F4EDF2" opacity="0.25" />
<rect x="480.04511278195486" y="417" height="12" width="281.9548872180451" fill="#009CA2" stroke="#009CA2" stroke-width="0" opacity="0.9" />
<rect x="480.04511278195486" y="419.16" height="4" width="281.9548872180451" fill="#F4EDF2" opacity="0.25" />
<rect x="12" y="432" height="12" width="281.9548872180451" fill="#009CA2" stroke="#009CA2" stroke-width="0" opacity="0.9" />
<rect x="12" y="434.16" height="4" width="281.9548872180451" fill="#F4EDF2" opacity="0.25" />
<rect x="293.9548872180451" y="432" height="12" width="186.09022556390977" fill="#1383C6" stroke="#1383C6" stroke-width="0" opacity="0.9" />
<rect x="293.9548872180451" y="434.16" height="4" width="186.09022556390977" fill="#F4EDF2" opacity="0.25" />
<rect x="480.04511278195486" y="432" height="12" width="281.9548872180451" fill="#009CA2" stroke="#009CA2" stroke-width="0" opacity="0.9" />
<rect x="480.04511278195486" y="434.16" height="4" width="281.9548872180451" fill="#F4EDF2" opacity="0.25" />
<rect x="12" y="447" height="12" width="281.9548872180451" fill="#009CA2" stroke="#009CA2" stroke-width="0" opacity="0.9" />
<rect x="12" y="449.16" height="4" width="281.9548872180451" fill="#F4EDF2" opacity="0.25" />
<rect x="293.9548872180451" y="447" height="12" width="186.09022556390977" fill="#1383C6" stroke="#1383C6" stroke-width="0" opacity="0.9" />
<rect x="293.9548872180451" y="449.16" height="4" width="186.09022556390977" fill="#F4EDF2" opacity="0.25" />
<rect x="480.04511278195486" y="447" height="12" width="281.9548872180451" fill="#009CA2" stroke="#009CA2" stroke-width="0" opacity="0.9" />
<rect x="480.04511278195486" y="449.16" height="4" width="281.9548872180451" fill="#F4EDF2" opacity="0.25" />
<rect x="12" y="462" height="12" width="281.9548872180451" fill="#009CA2" stroke="#009CA2" stroke-width="0" opacity="0.9" />
<rect x="12" y="464.16" height="4" width="281.9548872180451" fill="#F4EDF2" opacity="0.25" />
<rect x="293.9548872180451" y="462" height="12" width="186.09022556390977" fill="#1383C6" stroke="#1383C6" stroke-width="0" opacity="0.9" />
<rect x="293.9548872180451" y="464.16" height="4" width="186.09022556390977" fill="#F4EDF2" opacity="0.25" />
<rect x="480.04511278195486" y="462" height="12" width="281.9548872180451" fill="#009CA2" stroke="#009CA2" stroke-width="0" opacity="0.9" />
<rect x="480.04511278195486" y="464.16" height="4" width="281.9548872180451" fill="#F4EDF2" opacity="0.25" />
<rect x="12" y="477" height="12" width="281.9548872180451" fill="#009CA2" stroke="#009CA2" stroke-width="0" opacity="0.9" />
<rect x="12" y="479.16" height="4" width="281.9548872180451" fill="#F4EDF2" opacity="0.25" />
<rect x="293.9548872180451" y="477" height="12" width="84.58646616541354" fill="#1383C6" stroke="#1383C6" stroke-width="0" opacity="0.9" />
<rect x="293.9548872180451" y="479.16" height="4" width="84.58646616541354" fill="#F4EDF2" opacity="0.25" />
<rect x="378.5413533834586" y="477" height="12" width="5.639097744360902" fill="#7E7F7F" stroke="#7E7F7F" stroke-width="0" opacity="0.9" />
<rect x="378.5413533834586" y="479.16" height="4" width="5.639097744360902" fill="#F4EDF2" opacity="0.25" />
<rect x="384.18045112781954" y="477" height="12" width="95.86466165413533" fill="#1383C6" stroke="#1383C6" stroke-width="0" opacity="0.9" />
<rect x="384.18045112781954" y="479.16" height="4" width="95.86466165413533" fill="#F4EDF2" opacity="0.25" />
<rect x="480.04511278195486" y="477" height="12" width="281.9548872180451" fill="#009CA2" stroke="#009CA2" stroke-width="0" opacity="0.9" />
<rect x="480.04511278195486" y="479.16" height="4" width="281.9548872180451" fill="#F4EDF2" opacity="0.25" />
<line x1="12" y1="498" x2="17.639097744360903" y2="498" stroke="#000000" stroke-width="1.5" />
<rect x="17.639097744360903" y="492" height="12" width="118.42105263157895" fill="#009CA2" stroke="#009CA2" stroke-width="0" opacity="0.9" />
<rect x="17.639097744360903" y="494.16" height="4" width="118.42105263157895" fill="#F4EDF2" opacity="0.25" />
<rect x="136.06015037593986" y="492" height="12" width="157.89473684210526" fill="#009CA2" stroke="#009CA2" stroke-width="0" opacity="0.9" />
<rect x="136.06015037593986" y="494.16" height="4" width="157.89473684210526" fill="#F4EDF2" opacity="0.25" />
<rect x="293.9548872180451" y="492" height="12" width="186.09022556390977" fill="#1383C6" stroke="#1383C6" stroke-width="0" opacity="0.9" />
<rect x="293.9548872180451" y="494.16" height="4" width="186.09022556390977" fill="#F4EDF2" opacity="0.25" />
<rect x="480.04511278195486" y="492" height="12" width="281.9548872180451" fill="#009CA2" stroke="#009CA2" stroke-width="0" opacity="0.9" />
<rect x="480.04511278195486" y="494.16" height="4" width="281.9548872180451" fill="#F4EDF2" opacity="0.25" />
<line x1="136.06015037593986" y1="492" x2="136.06015037593986" y2="504" stroke="#000000" stroke-width="2" />
<rect x="12" y="507" height="12" width="281.9548872180451" fill="#009CA2" stroke="#009CA2" stroke-width="0" opacity="0.9" />
<rect x="12" y="509.16" height="4" width="281.9548872180451" fill="#F4EDF2" opacity="0.25" />
<rect x="293.9548872180451" y="507" height="12" width="5.639097744360902" fill="#1383C6" stroke="#1383C6" stroke-width="0" opacity="0.9" />
<rect x="293.9548872180451" y="509.16" height="4" width="5.639097744360902" fill="#F4EDF2" opacity="0.25" />
<rect x="299.593984962406" y="507" height="12" width="180.45112781954887" fill="#1383C6" stroke="#1383C6" stroke-width="0" opacity="0.9" />
<rect x="299.593984962406" y="509.16" height="4" width="180.45112781954887" fill="#F4EDF2" opacity="0.25" />
<rect x="480.0451127819549" y="507" height="12" width="281.9548872180451" fill="#009CA2" stroke="#009CA2" stroke-width="0" opacity="0.9" />
<rect x="480.0451127819549" y="509.16" height="4" width="281.9548872180451" fill="#F4EDF2" opacity="0.25" />
<line x1="299.593984962406" y1="507" x2="299.593984962406" y2="519" stroke="#000000" stroke-width="2" />
<rect x="12" y="525" height="12" width="12" fill="#1383C6" stroke="#1383C6" stroke-width="0" opacity="0.9" />
<text x="26" y="536" font-family="Roboto Mono" font-weight="bold" font-size="14px" >CAG</text>
</svg>
